<mxfile host="app.diagrams.net" modified="2022-11-15T06:19:56.502Z" agent="5.0 (Windows NT 10.0; Win64; x64) AppleWebKit/537.36 (KHTML, like Gecko) Chrome/107.0.0.0 Safari/537.36 Edg/107.0.1418.35" etag="S9VOHLLy4TlhAgZaS0cZ" version="20.5.3" type="github">
  <diagram id="Lrq_B5cbt0-HYkro8u6f" name="第 1 页">
    <mxGraphModel dx="1038" dy="579" grid="1" gridSize="10" guides="1" tooltips="1" connect="1" arrows="1" fold="1" page="1" pageScale="1" pageWidth="827" pageHeight="1169" math="0" shadow="0">
      <root>
        <mxCell id="0" />
        <mxCell id="1" parent="0" />
        <mxCell id="pyB7yYGDKb-wKmbRGgdC-3" style="edgeStyle=orthogonalEdgeStyle;rounded=0;orthogonalLoop=1;jettySize=auto;html=1;exitX=0.5;exitY=1;exitDx=0;exitDy=0;" edge="1" parent="1" source="pyB7yYGDKb-wKmbRGgdC-1" target="pyB7yYGDKb-wKmbRGgdC-2">
          <mxGeometry relative="1" as="geometry" />
        </mxCell>
        <mxCell id="pyB7yYGDKb-wKmbRGgdC-1" value="生产任务" style="rounded=1;whiteSpace=wrap;html=1;" vertex="1" parent="1">
          <mxGeometry x="294" y="70" width="120" height="60" as="geometry" />
        </mxCell>
        <mxCell id="pyB7yYGDKb-wKmbRGgdC-12" style="edgeStyle=orthogonalEdgeStyle;rounded=0;orthogonalLoop=1;jettySize=auto;html=1;exitX=0;exitY=0.5;exitDx=0;exitDy=0;entryX=0;entryY=0.5;entryDx=0;entryDy=0;entryPerimeter=0;" edge="1" parent="1" source="pyB7yYGDKb-wKmbRGgdC-2" target="pyB7yYGDKb-wKmbRGgdC-13">
          <mxGeometry relative="1" as="geometry">
            <mxPoint x="250" y="300" as="targetPoint" />
          </mxGeometry>
        </mxCell>
        <mxCell id="pyB7yYGDKb-wKmbRGgdC-14" value="新增操作日志" style="edgeLabel;html=1;align=center;verticalAlign=middle;resizable=0;points=[];" vertex="1" connectable="0" parent="pyB7yYGDKb-wKmbRGgdC-12">
          <mxGeometry x="0.1299" y="-3" relative="1" as="geometry">
            <mxPoint as="offset" />
          </mxGeometry>
        </mxCell>
        <mxCell id="pyB7yYGDKb-wKmbRGgdC-16" style="edgeStyle=orthogonalEdgeStyle;rounded=0;orthogonalLoop=1;jettySize=auto;html=1;exitX=0.5;exitY=1;exitDx=0;exitDy=0;entryX=0.5;entryY=0;entryDx=0;entryDy=0;entryPerimeter=0;" edge="1" parent="1" source="pyB7yYGDKb-wKmbRGgdC-2" target="pyB7yYGDKb-wKmbRGgdC-13">
          <mxGeometry relative="1" as="geometry" />
        </mxCell>
        <mxCell id="pyB7yYGDKb-wKmbRGgdC-2" value="检验项目" style="rounded=1;whiteSpace=wrap;html=1;" vertex="1" parent="1">
          <mxGeometry x="294" y="210" width="120" height="60" as="geometry" />
        </mxCell>
        <mxCell id="pyB7yYGDKb-wKmbRGgdC-5" value="生产管理" style="swimlane;whiteSpace=wrap;html=1;" vertex="1" parent="1">
          <mxGeometry x="200" y="30" width="300" height="460" as="geometry" />
        </mxCell>
        <mxCell id="pyB7yYGDKb-wKmbRGgdC-13" value="" style="shape=cylinder3;whiteSpace=wrap;html=1;boundedLbl=1;backgroundOutline=1;size=15;" vertex="1" parent="pyB7yYGDKb-wKmbRGgdC-5">
          <mxGeometry x="124" y="360" width="60" height="80" as="geometry" />
        </mxCell>
        <mxCell id="pyB7yYGDKb-wKmbRGgdC-4" value="新增 / 更新" style="text;html=1;align=center;verticalAlign=middle;resizable=0;points=[];autosize=1;strokeColor=none;fillColor=none;" vertex="1" parent="pyB7yYGDKb-wKmbRGgdC-5">
          <mxGeometry x="114" y="120" width="80" height="30" as="geometry" />
        </mxCell>
        <mxCell id="pyB7yYGDKb-wKmbRGgdC-7" value="每天0点0分执行同步" style="swimlane;whiteSpace=wrap;html=1;" vertex="1" parent="1">
          <mxGeometry x="500" y="30" width="300" height="460" as="geometry" />
        </mxCell>
        <mxCell id="pyB7yYGDKb-wKmbRGgdC-10" style="edgeStyle=orthogonalEdgeStyle;rounded=0;orthogonalLoop=1;jettySize=auto;html=1;exitX=0.5;exitY=1;exitDx=0;exitDy=0;" edge="1" parent="pyB7yYGDKb-wKmbRGgdC-7" source="pyB7yYGDKb-wKmbRGgdC-8" target="pyB7yYGDKb-wKmbRGgdC-9">
          <mxGeometry relative="1" as="geometry" />
        </mxCell>
        <mxCell id="pyB7yYGDKb-wKmbRGgdC-8" value="xxl-job" style="rounded=1;whiteSpace=wrap;html=1;" vertex="1" parent="pyB7yYGDKb-wKmbRGgdC-7">
          <mxGeometry x="90" y="40" width="120" height="60" as="geometry" />
        </mxCell>
        <mxCell id="pyB7yYGDKb-wKmbRGgdC-9" value="计算每天的平均检验值 (低热位值）" style="rounded=1;whiteSpace=wrap;html=1;" vertex="1" parent="pyB7yYGDKb-wKmbRGgdC-7">
          <mxGeometry x="90" y="180" width="120" height="60" as="geometry" />
        </mxCell>
        <mxCell id="pyB7yYGDKb-wKmbRGgdC-17" style="edgeStyle=orthogonalEdgeStyle;rounded=0;orthogonalLoop=1;jettySize=auto;html=1;exitX=0.5;exitY=1;exitDx=0;exitDy=0;entryX=1;entryY=0.5;entryDx=0;entryDy=0;entryPerimeter=0;" edge="1" parent="1" source="pyB7yYGDKb-wKmbRGgdC-9" target="pyB7yYGDKb-wKmbRGgdC-13">
          <mxGeometry relative="1" as="geometry" />
        </mxCell>
        <mxCell id="pyB7yYGDKb-wKmbRGgdC-18" value="更新或新增到检验项目中" style="edgeLabel;html=1;align=center;verticalAlign=middle;resizable=0;points=[];" vertex="1" connectable="0" parent="pyB7yYGDKb-wKmbRGgdC-17">
          <mxGeometry x="-0.416" y="-2" relative="1" as="geometry">
            <mxPoint as="offset" />
          </mxGeometry>
        </mxCell>
      </root>
    </mxGraphModel>
  </diagram>
</mxfile>
